<svg xmlns="http://www.w3.org/2000/svg" viewBox="0 0 26.458333 26.458334">
  <g fill="#e6f0e6">
    <path d="M13.229167 0C8.4574853.007 4.0591165 2.58234 1.7187581 6.74067c.4648537.0614.9261139.14749 1.3818278.25787C5.263077 3.47717 9.096808 1.32891 13.229167 1.32292c4.13389.004 7.969916 2.15173 10.133748 5.67407.457284-.10985.920101-.19524 1.386479-.2558C22.407443 2.5796 18.00447.00315 13.229167 0z"/>
    <path d="M13.229167 2.64583c-3.5486159.003-6.8597445 1.78353-8.8180668 4.74287.4246785.15053.8413893.32267 1.2485026.51573 1.7326057-2.46529 4.5563362-3.93344 7.5695642-3.93568 3.010671.005 5.831194 1.47248 7.562328 3.93568.409109-.19378.827895-.36644 1.254704-.51728-1.958477-2.95844-5.269079-4.7387-8.817032-4.74132z"/>
    <path d="M13.229167 5.29167c-2.525585.004-4.8986825 1.20902-6.3913416 3.24631.3776483.22839.7436305.47555 1.0965738.74052 1.2460552-1.67328 3.2084988-2.66063 5.2947678-2.66392 2.085447.003 4.047544.98853 5.29425 2.66031.352619-.26478.718255-.51175 1.09554-.74001-1.492995-2.03568-3.865305-3.23978-6.38979-3.24321z"/>
    <path d="M13.229167 7.9375c-1.693842.002-3.2841329.81568-4.2777756 2.18746.3301251.30421.6445525.62501.9420614.96118.7289972-1.13632 1.9856522-1.82412 3.3357142-1.82572 1.348859.00024 2.605257.68557 3.335713 1.81952.297086-.33507.610994-.65484.940511-.95808-.993987-1.37016-2.583487-2.18211-4.276224-2.18436z"/>
    <path d="M13.2291665 10.5833332a2.64583304 2.64583304 0 00-2.4411945 1.63142505 13.22916624 13.22916624 0 01.72140285 1.1425658 13.22916676 13.22916676 0 01.39945892-.04857591 1.32291652 1.32291652 0 01-.00258392-.07958164 1.32291652 1.32291652 0 011.32291665-1.32291665 1.32291652 1.32291652 0 011.32291665 1.32291665 1.32291652 1.32291652 0 01-.00310065.06614583 13.22916676 13.22916676 0 01.39119068.05891107 13.2291665 13.2291665 0 01.7281209-1.14980057 2.64583304 2.64583304 0 00-2.43912758-1.62108963z"/>
    <g>
      <path d="M13.22914224 13.22916629c-4.7716817.00699994-9.1700505 2.58232086-11.5104089 6.74062005.4648537.06139954.9261139.1474889 1.3818278.25786809 2.1624911-3.5213439 5.9962221-5.669588 10.1285811-5.67557795 4.13389.00399997 7.969916 2.15171406 10.133748 5.67402796.457284-.10984919.920101-.19523855 1.386479-.2557981-2.341951-4.16155917-6.744924-6.73799008-11.520227-6.74114005z"/>
      <path d="M13.22914224 15.87497668c-3.5486159.00299998-6.8597445 1.78351678-8.8180668 4.74283486.4246785.15052888.8413893.3226676 1.2485026.51572617 1.7326057-2.46527173 4.5563362-3.93341085 7.5695642-3.93565083 3.010671.00499996 5.831194 1.47246909 7.562328 3.93565083.409109-.19377856.827895-.36643728 1.254704-.51727616-1.958477-2.95841808-5.269079-4.73866489-8.817032-4.74128487z"/>
      <path d="M13.22914224 18.52079708c-2.525585.00399997-4.8986825 1.20901104-6.3913416 3.24628594.3776483.2283883.7436305.47554648 1.0965738.74051451 1.2460552-1.6732676 3.2084988-2.66061028 5.2947678-2.66390026 2.085447.00299998 4.047544.98852268 5.29425 2.66029029.352619-.26477804.718255-.5117462 1.09554-.74000452-1.492995-2.03566491-3.865305-3.23975599-6.38979-3.24318596z"/>
      <path d="M13.22914224 21.16660747c-1.693842.00199998-3.2841329.81567396-4.2777756 2.18744379.3301251.30420775.6445525.62500537.9420614.96117288.7289972-1.13631158 1.9856522-1.82410649 3.3357142-1.82570647 1.348859.00024 2.605257.68556492 3.335713 1.81950651.297086-.33506751.610994-.65483514.940511-.9580729-.993987-1.37014984-2.583487-2.18209383-4.276224-2.18434381z"/>
      <path d="M13.22914174 23.81242106a2.64583304 2.64581343 0 00-2.4411945 1.63141296 13.22916624 13.2290682 0 01.72140286 1.14255734 13.22916676 13.22906874 0 01.39945891-.04857555 1.32291652 1.32290671 0 01-.00258392-.07958105 1.32291652 1.32290671 0 011.32291665-1.32290685 1.32291652 1.32290671 0 011.32291665 1.32290685 1.32291652 1.32290671 0 01-.00310091.06614534 13.22916676 13.22906874 0 01.39119068.05891063 13.2291665 13.22906847 0 01.72812116-1.14979205 2.64583304 2.64581343 0 00-2.43912758-1.62107762z"/>
    </g>
    <g>
      <path d="M13.22914213-13.22916642c-4.77168165.00699995-9.1700504 2.58232084-11.51040879 6.74061999.4648537.06139954.9261139.1474889 1.38182779.25786808 2.16249108-3.52134387 5.99622204-5.66958793 10.128581-5.67557789 4.13388996.00399998 7.96991592 2.15171404 10.1337479 5.6740279.457284-.10984918.92010099-.19523855 1.38647898-.2557981-2.34195097-4.16155912-6.74492393-6.73799-11.52022688-6.74113998z"/>
      <path d="M13.22914213-10.58335605c-3.54861587.00299998-6.85974443 1.78351677-8.81806671 4.7428348.4246785.15052889.84138929.32266761 1.24850258.51572618 1.73260569-2.4652717 4.55633616-3.93341081 7.56956413-3.9356508 3.01067097.00499997 5.83119394 1.47246908 7.56232792 3.9356508.409109-.19377856.827895-.36643728 1.254704-.51727616-1.95847699-2.95841805-5.26907896-4.73866484-8.81703192-4.74128482z"/>
      <path d="M13.22914213-7.93753568c-2.52558498.00399997-4.89868245 1.20901103-6.39134154 3.2462859.3776483.22838831.7436305.47554648 1.0965738.74051451 1.24605518-1.67326758 3.20849876-2.66061025 5.29476774-2.66390023 2.08544698.00299998 4.04754396.98852267 5.29424995 2.66029026.352619-.26477803.71825499-.5117462 1.09553999-.7400045-1.49299499-2.0356649-3.86530497-3.23975597-6.38978994-3.24318594z"/>
      <path d="M13.22914213-5.29172532c-1.69384198.00199999-3.28413287.81567395-4.27777556 2.18744377.3301251.30420775.6445525.62500537.9420614.96117287.72899719-1.13631157 1.98565217-1.82410646 3.33571416-1.82570645 1.34885899.00024 2.60525697.68556491 3.33571297 1.8195065.297086-.33506752.61099399-.65483514.94051099-.9580729-.993987-1.37014983-2.58348698-2.1820938-4.27622396-2.18434379z"/>
      <path d="M13.22914163-2.64591175a2.645833 2.6458134 0 00-2.44119447 1.63141294A13.2291661 13.22906808 0 0111.50935.12805852a13.22916663 13.2290686 0 01.39945891-.04857555 1.3229165 1.3229067 0 01-.00258392-.07958105 1.3229165 1.3229067 0 011.32291664-1.32290683 1.3229165 1.3229067 0 011.32291664 1.32290683 1.3229165 1.3229067 0 01-.00310092.06614534 13.22916663 13.2290686 0 01.39119068.05891063 13.22916637 13.22906834 0 01.72812115-1.14979204 2.645833 2.6458134 0 00-2.43912755-1.6210776z"/>
    </g>
    <g>
      <path d="M.007777 6.6157121c-4.7716817.007-9.1700505 2.58234-11.5104089 6.74067.4648537.0614.9261139.14749 1.3818278.25787 2.1624911-3.52137 5.9962221-5.66963 10.1285811-5.67562 4.13389.004 7.969916 2.15173 10.133748 5.67407.457284-.10985.920101-.19524 1.386479-.2558-2.341951-4.16159-6.744924-6.73804-11.520227-6.74119z"/>
      <path d="M.007777 9.2615421c-3.5486159.003-6.8597445 1.78353-8.8180668 4.74287.4246785.15053.8413893.32267 1.2485026.51573 1.7326057-2.46529 4.5563362-3.93344 7.5695642-3.93568 3.010671.005 5.831194 1.47248 7.562328 3.93568.409109-.19378.827895-.36644 1.254704-.51728-1.958477-2.95844-5.269079-4.7387-8.817032-4.74132z"/>
      <path d="M.007777 11.9073821c-2.525585.004-4.8986825 1.20902-6.3913416 3.24631.3776483.22839.7436305.47555 1.0965738.74052 1.2460552-1.67328 3.2084988-2.66063 5.2947678-2.66392 2.085447.003 4.047544.98853 5.29425 2.66031.352619-.26478.718255-.51175 1.09554-.74001-1.492995-2.03568-3.865305-3.23978-6.38979-3.24321z"/>
      <path d="M.007777 14.5532121c-1.693842.002-3.2841329.81568-4.2777756 2.18746.3301251.30421.6445525.62501.9420614.96118.7289972-1.13632 1.9856522-1.82412 3.3357142-1.82572 1.348859.00024 2.605257.68557 3.335713 1.81952.297086-.33507.610994-.65484.940511-.95808-.993987-1.37016-2.583487-2.18211-4.276224-2.18436z"/>
      <path d="M.0077765 17.1990453a2.64583304 2.64583304 0 00-2.4411945 1.63142505 13.22916624 13.22916624 0 01.72140286 1.1425658 13.22916676 13.22916676 0 01.39945891-.04857591 1.32291652 1.32291652 0 01-.00258392-.07958164A1.32291652 1.32291652 0 01.0077765 18.52196195a1.32291652 1.32291652 0 011.32291665 1.32291665 1.32291652 1.32291652 0 01-.00310092.06614583 13.22916676 13.22916676 0 01.39119069.05891107 13.2291665 13.2291665 0 01.72812115-1.14980057A2.64583304 2.64583304 0 00.0077765 17.1990453z"/>
      <g>
        <path d="M.00775224 19.84487839c-4.7716817.00699994-9.1700505 2.58232086-11.5104089 6.74062005.4648537.06139954.9261139.1474889 1.3818278.25786809 2.1624911-3.5213439 5.9962221-5.669588 10.1285811-5.67557795 4.13389.00399997 7.969916 2.15171406 10.133748 5.67402796.457284-.10984919.920101-.19523855 1.386479-.2557981-2.341951-4.16155917-6.744924-6.73799008-11.520227-6.74114005z"/>
        <path d="M.00775224 22.49068878c-3.5486159.00299998-6.8597445 1.78351678-8.8180668 4.74283486.4246785.15052888.8413893.3226676 1.2485026.51572617 1.7326057-2.46527173 4.5563362-3.93341085 7.5695642-3.93565083 3.010671.00499996 5.831194 1.47246909 7.562328 3.93565083.409109-.19377856.827895-.36643728 1.254704-.51727616-1.958477-2.95841808-5.269079-4.73866489-8.817032-4.74128487z"/>
        <path d="M.00775224 25.13650918c-2.525585.00399997-4.8986825 1.20901104-6.3913416 3.24628594.3776483.2283883.7436305.47554648 1.0965738.74051451 1.2460552-1.6732676 3.2084988-2.66061028 5.2947678-2.66390026 2.085447.00299998 4.047544.98852268 5.29425 2.66029029.352619-.26477804.718255-.5117462 1.09554-.74000452-1.492995-2.03566491-3.865305-3.23975599-6.38979-3.24318596z"/>
        <path d="M.00775224 27.78231957c-1.693842.00199998-3.2841329.81567396-4.2777756 2.18744379.3301251.30420775.6445525.62500537.9420614.96117288.7289972-1.13631158 1.9856522-1.82410649 3.3357142-1.82570647 1.348859.00024 2.605257.68556492 3.335713 1.81950651.297086-.33506751.610994-.65483514.940511-.9580729-.993987-1.37014984-2.583487-2.18209383-4.276224-2.18434381z"/>
        <path d="M.00775174 30.42813316a2.64583304 2.64581343 0 00-2.4411945 1.63141296 13.22916624 13.2290682 0 01.72140286 1.14255734 13.22916676 13.22906874 0 01.39945891-.04857555 1.32291652 1.32290671 0 01-.00258392-.07958105A1.32291652 1.32290671 0 01.00775174 31.75104a1.32291652 1.32290671 0 011.32291665 1.32290685 1.32291652 1.32290671 0 01-.00310091.06614534 13.22916676 13.22906874 0 01.39119068.05891063 13.2291665 13.22906847 0 01.72812116-1.14979205 2.64583304 2.64581343 0 00-2.43912758-1.62107762z"/>
      </g>
      <g>
        <path d="M.00775213-6.61345432c-4.77168165.00699995-9.1700504 2.58232084-11.51040879 6.74061999.4648537.06139954.9261139.1474889 1.38182779.25786808 2.16249108-3.52134387 5.99622204-5.66958793 10.128581-5.67557789 4.13388996.00399998 7.96991592 2.15171404 10.1337479 5.6740279.457284-.10984918.92010099-.19523855 1.38647898-.2557981-2.34195097-4.16155912-6.74492393-6.73799-11.52022688-6.74113998z"/>
        <path d="M.00775213-3.96764395c-3.54861587.00299998-6.85974443 1.78351677-8.81806671 4.7428348.4246785.15052889.84138929.32266761 1.24850258.51572618 1.73260569-2.4652717 4.55633616-3.93341081 7.56956413-3.9356508 3.01067097.00499997 5.83119394 1.47246908 7.56232792 3.9356508.409109-.19377856.827895-.36643728 1.254704-.51727616C6.86630705-2.18477718 3.55570508-3.96502397.00775212-3.96764395z"/>
        <path d="M.00775213-1.32182358c-2.52558498.00399997-4.89868245 1.20901103-6.39134154 3.2462859.3776483.22838831.7436305.47554648 1.0965738.74051451C-4.04096044.99170925-2.07851686.00436658.00775212.0010766 2.0931991.00407658 4.05529609.98959927 5.30200208 2.66136686c.352619-.26477803.71825499-.5117462 1.09553999-.7400045C4.90454708-.11430255 2.5322371-1.31839362.00775213-1.32182359z"/>
        <path d="M.00775213 1.32398678c-1.69384198.00199999-3.28413287.81567395-4.27777556 2.18744377.3301251.30420775.6445525.62500537.9420614.96117287.72899719-1.13631157 1.98565217-1.82410646 3.33571416-1.82570645 1.34885899.00024 2.60525697.68556491 3.33571297 1.8195065.297086-.33506752.61099399-.65483514.94051099-.9580729-.993987-1.37014983-2.58348698-2.1820938-4.27622396-2.18434379z"/>
        <path d="M.00775163 3.96980035A2.645833 2.6458134 0 00-2.43344284 5.6012133 13.2291661 13.22906808 0 01-1.71204 6.74377062a13.22916663 13.2290686 0 01.39945891-.04857555 1.3229165 1.3229067 0 01-.00258392-.07958105A1.3229165 1.3229067 0 01.00775163 5.2927072a1.3229165 1.3229067 0 011.32291664 1.32290683 1.3229165 1.3229067 0 01-.00310092.06614534 13.22916663 13.2290686 0 01.39119068.05891063 13.22916637 13.22906834 0 01.72812115-1.14979204 2.645833 2.6458134 0 00-2.43912755-1.6210776z"/>
      </g>
    </g>
    <g>
      <path d="M26.450582 6.6135534c-4.7716817.007-9.1700505 2.58234-11.5104089 6.74067.4648537.0614.9261139.14749 1.3818278.25787 2.1624911-3.52137 5.9962221-5.66963 10.1285811-5.67562 4.13389.004 7.969916 2.15173 10.133748 5.67407.457284-.10985.920101-.19524 1.386479-.2558-2.341951-4.16159-6.744924-6.73804-11.520227-6.74119z"/>
      <path d="M26.450582 9.2593834c-3.5486159.003-6.8597445 1.78353-8.8180668 4.74287.4246785.15053.8413893.32267 1.2485026.51573 1.7326057-2.46529 4.5563362-3.93344 7.5695642-3.93568 3.010671.005 5.831194 1.47248 7.562328 3.93568.409109-.19378.827895-.36644 1.254704-.51728-1.958477-2.95844-5.269079-4.7387-8.817032-4.74132z"/>
      <path d="M26.450582 11.9052234c-2.525585.004-4.8986825 1.20902-6.3913416 3.24631.3776483.22839.7436305.47555 1.0965738.74052 1.2460552-1.67328 3.2084988-2.66063 5.2947678-2.66392 2.085447.003 4.047544.98853 5.29425 2.66031.352619-.26478.718255-.51175 1.09554-.74001-1.492995-2.03568-3.865305-3.23978-6.38979-3.24321z"/>
      <path d="M26.450582 14.5510534c-1.693842.002-3.2841329.81568-4.2777756 2.18746.3301251.30421.6445525.62501.9420614.96118.7289972-1.13632 1.9856522-1.82412 3.3357142-1.82572 1.348859.00024 2.605257.68557 3.335713 1.81952.297086-.33507.610994-.65484.940511-.95808-.993987-1.37016-2.583487-2.18211-4.276224-2.18436z"/>
      <path d="M26.4505815 17.1968866a2.64583304 2.64583304 0 00-2.4411945 1.63142505 13.22916624 13.22916624 0 01.72140285 1.1425658 13.22916676 13.22916676 0 01.39945892-.04857591 1.32291652 1.32291652 0 01-.00258392-.07958164 1.32291652 1.32291652 0 011.32291665-1.32291665 1.32291652 1.32291652 0 011.32291665 1.32291665 1.32291652 1.32291652 0 01-.00310092.06614583 13.22916676 13.22916676 0 01.39119069.05891107 13.2291665 13.2291665 0 01.72812115-1.14980057 2.64583304 2.64583304 0 00-2.43912757-1.62108963z"/>
      <g>
        <path d="M26.45055724 19.84271969c-4.7716817.00699994-9.1700505 2.58232086-11.5104089 6.74062005.4648537.06139954.9261139.1474889 1.3818278.25786809 2.1624911-3.5213439 5.9962221-5.669588 10.1285811-5.67557795 4.13389.00399997 7.969916 2.15171406 10.133748 5.67402796.457284-.10984919.920101-.19523855 1.386479-.2557981-2.341951-4.16155917-6.744924-6.73799008-11.520227-6.74114005z"/>
        <path d="M26.45055724 22.48853008c-3.5486159.00299998-6.8597445 1.78351678-8.8180668 4.74283486.4246785.15052888.8413893.3226676 1.2485026.51572617 1.7326057-2.46527173 4.5563362-3.93341085 7.5695642-3.93565083 3.010671.00499996 5.831194 1.47246909 7.562328 3.93565083.409109-.19377856.827895-.36643728 1.254704-.51727616-1.958477-2.95841808-5.269079-4.73866489-8.817032-4.74128487z"/>
        <path d="M26.45055724 25.13435048c-2.525585.00399997-4.8986825 1.20901104-6.3913416 3.24628594.3776483.2283883.7436305.47554648 1.0965738.74051451 1.2460552-1.6732676 3.2084988-2.66061028 5.2947678-2.66390026 2.085447.00299998 4.047544.98852268 5.29425 2.66029029.352619-.26477804.718255-.5117462 1.09554-.74000452-1.492995-2.03566491-3.865305-3.23975599-6.38979-3.24318596z"/>
        <path d="M26.45055724 27.78016087c-1.693842.00199998-3.2841329.81567396-4.2777756 2.18744379.3301251.30420775.6445525.62500537.9420614.96117288.7289972-1.13631158 1.9856522-1.82410649 3.3357142-1.82570647 1.348859.00024 2.605257.68556492 3.335713 1.81950651.297086-.33506751.610994-.65483514.940511-.9580729-.993987-1.37014984-2.583487-2.18209383-4.276224-2.18434381z"/>
        <path d="M26.45055674 30.42597446a2.64583304 2.64581343 0 00-2.4411945 1.63141296 13.22916624 13.2290682 0 01.72140286 1.14255734 13.22916676 13.22906874 0 01.39945891-.04857555 1.32291652 1.32290671 0 01-.00258392-.07958105 1.32291652 1.32290671 0 011.32291665-1.32290685 1.32291652 1.32290671 0 011.32291665 1.32290685 1.32291652 1.32290671 0 01-.00310091.06614534 13.22916676 13.22906874 0 01.39119068.05891063 13.2291665 13.22906847 0 01.72812116-1.14979205 2.64583304 2.64581343 0 00-2.43912758-1.62107762z"/>
      </g>
      <g>
        <path d="M26.45055713-6.61561302c-4.77168165.00699995-9.1700504 2.58232084-11.51040879 6.74061999.4648537.06139954.9261139.1474889 1.38182779.25786808 2.16249108-3.52134387 5.99622204-5.66958793 10.128581-5.67557789 4.13388996.00399998 7.96991592 2.15171404 10.1337479 5.6740279.457284-.10984918.92010099-.19523855 1.38647898-.2557981-2.34195097-4.16155912-6.74492393-6.73799-11.52022688-6.74113998z"/>
        <path d="M26.45055713-3.96980265c-3.54861587.00299998-6.85974443 1.78351677-8.81806671 4.7428348.4246785.15052889.84138929.32266761 1.24850258.51572618 1.73260569-2.4652717 4.55633616-3.93341081 7.56956413-3.9356508 3.01067097.00499997 5.83119394 1.47246908 7.56232792 3.9356508.409109-.19377856.827895-.36643728 1.254704-.51727616-1.95847699-2.95841805-5.26907896-4.73866484-8.81703192-4.74128482z"/>
        <path d="M26.45055713-1.32398228c-2.52558498.00399997-4.89868245 1.20901103-6.39134154 3.2462859.3776483.22838831.7436305.47554648 1.0965738.74051451C22.40184456.98955055 24.36428814.00220788 26.45055712-.0010821c2.08544698.00299998 4.04754396.98852267 5.29424995 2.66029026.352619-.26477803.71825499-.5117462 1.09553999-.7400045-1.49299499-2.0356649-3.86530497-3.23975597-6.38978994-3.24318594z"/>
        <path d="M26.45055713 1.32182808c-1.69384198.00199999-3.28413287.81567395-4.27777556 2.18744377.3301251.30420775.6445525.62500537.9420614.96117287.72899719-1.13631157 1.98565217-1.82410646 3.33571416-1.82570645 1.34885899.00024 2.60525697.68556491 3.33571297 1.8195065.297086-.33506752.61099399-.65483514.94051099-.9580729-.993987-1.37014983-2.58348698-2.1820938-4.27622396-2.18434379z"/>
        <path d="M26.45055663 3.96764165a2.645833 2.6458134 0 00-2.44119447 1.63141294 13.2291661 13.22906808 0 01.72140284 1.14255733 13.22916663 13.2290686 0 01.39945891-.04857555 1.3229165 1.3229067 0 01-.00258392-.07958105 1.3229165 1.3229067 0 011.32291664-1.32290683 1.3229165 1.3229067 0 011.32291664 1.32290683 1.3229165 1.3229067 0 01-.00310092.06614534 13.22916663 13.2290686 0 01.39119068.05891063 13.22916637 13.22906834 0 01.72812115-1.14979204 2.645833 2.6458134 0 00-2.43912755-1.6210776z"/>
      </g>
    </g>
  </g>
</svg>
